The story takes place in Japan in the early 21st century, in an alternate reality where the Tokugawa Shogunate has remained in power. In this reality, student councils are tasked with oppressing schools. Yagyuu Muneakira is a high school student who rebels against his student council with the help of girls who've had the names of famous samurai heroes passed on to them.

General 
 
Complete name : N:Hyakka Ryouran Samurai Girls New Kbps SSA 01 - Hyakka Ryouran Samurai Girls - The First Kiss.mkv 
Format : Matroska 
Format version : Version 2 
File size : 2.04 GiB 
Duration : 23mn 42s 
Overall bit rate : 12.3 Mbps 


Video 
ID : 1 
Format : AVC 
Format/Info : Advanced Video Codec 
Format profile : High@L5.0 
Format settings, CABAC : Yes 
Format settings, ReFrames : 6 frames 
Muxing mode : Header stripping 
Codec ID : V_MPEG4/ISO/AVC 
Duration : 23mn 42s 
Bit rate : 11.5 Mbps 
Width : 1 920 pixels 
Height : 1 080 pixels 
Display aspect ratio : 16:9 
Frame rate : 23.976 fps 
Color space : YUV 
Chroma subsampling : 4:2:0 
Bit depth : 8 bits 
Scan type : Progressive 
Bits/(Pixel*Frame) : 0.231 
Stream size : 1.90 GiB (93%) 
Title : 001 - Hyakka Ryouran Samurai Girls - The First Kiss 

Audio 
ID : 2 
Format : AC-3 
Format/Info : Audio Coding 3 
Mode extension : CM (complete main) 
Muxing mode : Header stripping 
Codec ID : A_AC3 
Duration : 23mn 42s 
Bit rate mode : Constant 
Bit rate : 576 Kbps 
Channel(s) : 6 channels 
Channel positions : Front: L C R, Side: L R, LFE 
Sampling rate : 48.0 KHz 
Bit depth : 16 bits 
Compression mode : Lossy 
Stream size : 97.7 MiB (5%) 
Title : AC3 5.1 @ 576 Kbps 
Language : English 

Text #1 
ID : 3 
Format : ASS 
Codec ID : S_TEXT/ASS 
Codec ID/Info : Advanced Sub Station Alpha 
Compression mode : Lossless 
Title : ASS 
Language : Spanish 

Text #2 
ID : 4 
Format : ASS 
Codec ID : S_TEXT/ASS 
Codec ID/Info : Advanced Sub Station Alpha 
Compression mode : Lossless 
Title : ASS 
Language : English 

Text #3 
ID : 5 
Format : UTF-8 
Codec ID : S_TEXT/UTF8 
Codec ID/Info : UTF-8 Plain Text 
Title : SRT 
Language : Spanish 

Text #4 
ID : 6 
Format : UTF-8 
Codec ID : S_TEXT/UTF8 
Codec ID/Info : UTF-8 Plain Text 
Title : SRT 
Language : English 

Menu 
00:00:00.000 : :Intro 
00:02:13.008 : :Opening 
00:03:43.014 : :Episode 
00:21:41.007 : :Ending 
00:23:11.014 : :Preview 





